<svg xmlns="http://www.w3.org/2000/svg" viewBox="0 0 500 500"><g id="freepik--Table--inject-352"><path d="M455.38,464.69c0,.14-91.96,.26-205.37,.26s-205.39-.12-205.39-.26,91.94-.26,205.39-.26,205.37,.12,205.37,.26Z" style="fill:#455a64;"></path></g><g id="freepik--Speech_Bubble--inject-352"><g><g><path d="M306.25,182.63l4.77-14.01c-3.93-7.54-5.89-16.24-5.24-25.34,1.89-26.19,24.65-45.9,50.84-44.01,26.19,1.89,45.9,24.65,44.01,50.84-1.89,26.19-24.65,45.9-50.84,44.01-10.94-.79-20.73-5.22-28.31-12.02v.02l-15.23,.51Z" style="fill:#fff;"></path><g><path d="M306.25,182.63s.31,0,.96-.01c.67-.02,1.63-.04,2.9-.07,2.6-.07,6.42-.17,11.39-.31h.21l-.12-.19v-.02l-.2,.16c4.54,4.09,11.4,8.68,20.68,10.93,2.31,.56,4.75,.96,7.3,1.17,2.55,.08,5.21,.27,7.93-.06,5.44-.45,11.16-1.87,16.66-4.53,5.49-2.64,10.75-6.51,15.14-11.51,4.39-4.99,7.91-11.12,9.95-17.95,2.08-6.82,2.5-14.36,1.23-21.76-1.29-7.4-4.32-14.72-9.17-20.88-.61-.77-1.21-1.55-1.83-2.31-.68-.71-1.35-1.42-2.02-2.12l-1.01-1.06-1.1-.96c-.73-.64-1.47-1.27-2.2-1.9-.75-.61-1.56-1.13-2.34-1.7-.79-.54-1.54-1.16-2.39-1.6-1.67-.93-3.27-1.97-5.03-2.67-6.87-3.16-14.31-4.59-21.47-4.39-7.17,.25-14.03,2.12-19.98,5.14-5.97,3.02-11.04,7.16-14.99,11.84-3.96,4.68-6.78,9.88-8.58,15.04-.97,2.57-1.49,5.18-2.02,7.69-.29,2.55-.69,4.99-.67,7.38-.13,9.55,2.6,17.34,5.43,22.71v-.09c-1.53,4.57-2.7,8.09-3.5,10.49-.38,1.17-.68,2.06-.88,2.67-.19,.6-.28,.89-.28,.89,0,0,.12-.32,.34-.92,.22-.62,.53-1.51,.94-2.69,.82-2.37,2.03-5.84,3.6-10.36l.02-.05-.02-.05c-2.77-5.37-5.43-13.11-5.27-22.59,0-2.36,.4-4.79,.7-7.31,.54-2.48,1.06-5.07,2.03-7.61,1.8-5.11,4.61-10.25,8.54-14.87,3.92-4.62,8.94-8.71,14.85-11.68,5.9-2.98,12.68-4.82,19.77-5.05,7.08-.18,14.43,1.23,21.22,4.36,1.74,.69,3.33,1.72,4.97,2.64,.84,.43,1.58,1.04,2.36,1.58,.77,.56,1.57,1.08,2.31,1.68,.72,.63,1.44,1.25,2.17,1.88l1.08,.95,1,1.05c.67,.7,1.33,1.4,2,2.1,.62,.75,1.2,1.52,1.81,2.28,4.79,6.09,7.79,13.32,9.06,20.63,1.26,7.31,.86,14.76-1.2,21.5-2.01,6.76-5.48,12.82-9.82,17.76-4.34,4.95-9.53,8.79-14.96,11.42-5.44,2.64-11.1,4.07-16.48,4.53-2.69,.33-5.33,.15-7.86,.08-2.53-.2-4.96-.58-7.25-1.13-9.21-2.19-16.06-6.71-20.6-10.74l-.67-.59,.48,.75v.02l.11-.19c-4.93,.2-8.72,.35-11.3,.45-1.28,.06-2.25,.1-2.93,.13-.66,.03-1.01,.05-1.01,.05Z" style="fill:#263238;"></path><path d="M353.86,194.66c-1.09,0-2.17-.04-3.23-.08-.42-.02-.84-.03-1.26-.05-2.53-.2-5-.6-7.35-1.18-9.6-2.32-16.51-7.16-20.65-10.86l-14.15,.37c-.6,.01-.92,.01-.96,.01-.01,0-.02,0-.04,0-.03,0-.06-.02-.09-.03-.03-.02-.06-.04-.08-.07-.02-.03-.03-.06-.04-.09h0s0-.06,0-.1c0-.01,0-.03,0-.04,.01-.04,.1-.33,.28-.89l4.32-13.01c-2.55-4.87-5.52-12.73-5.38-22.69-.01-1.87,.22-3.75,.47-5.74,.07-.55,.14-1.1,.2-1.66l.13-.6c.49-2.34,1.01-4.75,1.91-7.15,1.94-5.55,4.84-10.64,8.63-15.12,4.12-4.89,9.33-9,15.06-11.9,6.19-3.14,13.13-4.93,20.09-5.16,7.4-.2,14.86,1.33,21.58,4.42,1.34,.53,2.62,1.27,3.85,1.99,.4,.23,.8,.46,1.2,.69,.6,.31,1.16,.71,1.69,1.1,.24,.17,.47,.34,.71,.51,.28,.2,.56,.4,.84,.59,.5,.35,1.03,.72,1.52,1.12l3.3,2.87,3.05,3.2c.42,.5,.81,1.01,1.2,1.51,.21,.27,.43,.54,.64,.82,4.68,5.95,7.86,13.2,9.22,20.99,1.29,7.46,.86,15.02-1.23,21.87-1.98,6.62-5.43,12.86-10,18.05-4.23,4.81-9.49,8.81-15.22,11.57-5.25,2.54-10.89,4.07-16.75,4.55-1.17,.14-2.33,.18-3.47,.18Zm-32.96-13.5c.06,0,.12,.02,.17,.06l.67,.59c4.09,3.63,10.96,8.42,20.49,10.69,2.31,.56,4.73,.93,7.21,1.13,.41,.01,.84,.03,1.27,.04,2.12,.07,4.32,.15,6.54-.12,5.75-.49,11.27-2.01,16.41-4.51,5.6-2.71,10.75-6.64,14.88-11.36,4.46-5.08,7.84-11.19,9.76-17.67,2.04-6.69,2.45-14.09,1.19-21.39-1.33-7.61-4.45-14.71-9.01-20.52-.22-.27-.44-.55-.65-.83-.38-.49-.76-.97-1.15-1.45l-2.98-3.13-3.24-2.81c-.46-.37-.97-.73-1.46-1.07-.28-.2-.56-.39-.83-.59-.24-.16-.48-.33-.71-.51-.54-.39-1.05-.76-1.61-1.05-.42-.23-.82-.47-1.22-.7-1.2-.7-2.44-1.42-3.73-1.93-6.58-3.03-13.89-4.53-21.12-4.34-6.8,.23-13.6,1.96-19.66,5.02-5.62,2.83-10.72,6.84-14.78,11.62-3.72,4.38-6.58,9.35-8.5,14.79-.89,2.33-1.4,4.7-1.89,7l-.13,.59c-.06,.54-.13,1.09-.21,1.65-.25,1.95-.49,3.79-.48,5.62-.18,9.87,2.75,17.67,5.24,22.48,.03,.06,.06,.18,.04,.24l-4.56,13.1c-.08,.23-.15,.42-.2,.57,.16,0,.37-.02,.63-.03l13.58-.55-.14-.22c-.07-.1-.05-.24,.05-.33,.05-.04,.11-.06,.16-.06Zm32.06-81.99c6.91,0,13.83,1.51,20.1,4.4,1.32,.52,2.57,1.25,3.79,1.96,.4,.23,.8,.46,1.21,.69,.59,.3,1.14,.7,1.67,1.09,.24,.17,.47,.34,.71,.5,.28,.2,.56,.4,.83,.59,.5,.35,1.01,.71,1.5,1.1l3.26,2.83,3.01,3.16c.41,.49,.79,.98,1.17,1.47,.22,.28,.43,.55,.65,.83,4.62,5.87,7.77,13.04,9.11,20.74,1.27,7.38,.86,14.85-1.2,21.62-1.95,6.55-5.36,12.72-9.87,17.86-2.44,2.79-5.23,5.3-8.26,7.46,3.03-2.15,5.83-4.66,8.28-7.45,4.52-5.13,7.94-11.31,9.9-17.86,2.07-6.78,2.49-14.26,1.22-21.64-1.34-7.71-4.49-14.89-9.12-20.77-.22-.27-.43-.54-.64-.82-.39-.5-.78-1-1.18-1.49l-3.02-3.17-3.28-2.85c-.47-.38-.99-.74-1.48-1.09-.28-.2-.56-.39-.84-.6-.24-.16-.48-.34-.72-.51-.52-.38-1.06-.77-1.64-1.07-.41-.23-.82-.46-1.22-.7-1.22-.71-2.48-1.44-3.8-1.96-6.67-3.06-14.05-4.58-21.37-4.38-6.88,.24-13.75,2-19.88,5.11-3.23,1.63-6.29,3.65-9.08,5.99,2.8-2.33,5.86-4.34,9.09-5.97,6.12-3.09,13-4.85,19.87-5.08,.41-.01,.82-.02,1.23-.02Z" style="fill:#263238;"></path></g></g><path d="M371.79,141.84c-.21-2.3-1.27-4.47-2.76-6.23-1.47-1.72-3.4-3.1-5.59-3.63-2.33-.57-4.89-.13-6.9,1.19-1.2,.78-2.19,1.86-2.88,3.11-.63-1.13-1.5-2.13-2.55-2.89-1.95-1.41-4.48-1.97-6.84-1.51-2.22,.43-4.22,1.71-5.76,3.36-1.58,1.68-2.74,3.8-3.05,6.09-.4,2.86,.08,6.02,1.51,8.53,1.51,2.65,4,4.82,6.58,6.46,4.33,2.75,10.04,6.2,10.04,6.2,0,0,4.98-3.54,9.43-6.08,2.65-1.51,5.24-3.56,6.87-6.14,1.55-2.44,2.18-5.57,1.92-8.45Z" style="fill:#FF725E;"></path></g></g><g id="freepik--Character--inject-352"><g><g><g><path d="M160.55,111.24c-7.06,8.52-14.9,16.39-23.4,23.48,7.07-1.41,13.84-4.29,19.75-8.4-7.94,9.4-15.97,18.96-21.14,30.12,21.85-8.06,39.5-26.71,46.36-48.96l-21.56,3.76Z" style="fill:#263238;"></path><path d="M178.23,125.85l13.94-11.95c5.16-4.52,22.75-16.81,25.2-23.21s2.53-13.95-.95-19.86c-3.26-5.54-9.2-9.03-15.31-11.02-15.82-5.17-47.28,5.73-59.57,16.96-4.91,4.49-8.96,10.27-9.97,16.85-1.07,6.97,3.71,16.09,10.16,18.95,15.08,6.7,29.26,6.1,35.25,4.61" style="fill:#263238;"></path><path d="M176.99,117.17s-.43,.13-1.22,.27c-.79,.15-1.94,.3-3.36,.45-2.85,.29-6.82,.44-11.19,.09-4.37-.36-8.26-1.15-11.03-1.89-1.38-.37-2.49-.71-3.24-.99-.76-.27-1.17-.43-1.16-.46,.01-.03,.44,.06,1.21,.27,.77,.21,1.89,.5,3.27,.82,2.77,.65,6.65,1.38,10.98,1.73,4.33,.35,8.27,.26,11.11,.06,1.42-.1,2.57-.2,3.36-.28,.79-.08,1.24-.11,1.24-.07Z" style="fill:#455a64;"></path><path d="M142.27,76.5s.21-.03,.6-.04c.39,0,.98-.03,1.73,0,1.5,.03,3.67,.2,6.32,.67,5.27,.91,12.52,3.34,19.15,8.25,6.64,4.91,11.08,11.13,13.49,15.91,1.22,2.4,2.02,4.42,2.49,5.85,.25,.71,.39,1.27,.51,1.65,.11,.38,.15,.58,.14,.59-.02,0-.1-.19-.24-.56-.15-.37-.32-.92-.6-1.61-.53-1.4-1.37-3.39-2.63-5.75-2.47-4.7-6.91-10.81-13.47-15.66-6.56-4.86-13.69-7.31-18.91-8.31-2.62-.51-4.77-.74-6.26-.83-.74-.07-1.33-.07-1.72-.1-.39-.02-.6-.05-.6-.06Z" style="fill:#455a64;"></path><path d="M163.45,65.02s.19-.02,.56,0c.36,.03,.91,.02,1.59,.13,1.38,.15,3.36,.58,5.68,1.47,2.32,.89,4.94,2.34,7.52,4.38,2.58,2.04,5.08,4.7,7.21,7.85,4.22,6.35,6.14,13.07,7.21,17.87,.53,2.42,.86,4.39,1.05,5.76,.1,.68,.16,1.22,.2,1.58,.04,.36,.05,.55,.03,.56-.02,0-.06-.18-.14-.54-.08-.41-.18-.93-.3-1.56-.25-1.36-.63-3.32-1.21-5.71-1.15-4.76-3.12-11.4-7.28-17.66-2.09-3.1-4.55-5.73-7.07-7.76-2.53-2.03-5.08-3.49-7.36-4.41-2.27-.93-4.21-1.4-5.57-1.61-1.36-.22-2.12-.28-2.12-.33Z" style="fill:#455a64;"></path><path d="M197.58,66.14s.24-.08,.7-.18c.46-.1,1.14-.24,2.02-.4,1.76-.31,4.32-.79,7.54-.88,3.19-.09,7.17,.29,10.97,2.36,1.88,1.03,3.65,2.54,4.92,4.53,1.3,1.96,2.02,4.36,2.2,6.83,.33,4.97-1.39,9.68-4.01,13.04-2.61,3.41-5.81,5.68-8.58,7.28-2.79,1.6-5.21,2.57-6.88,3.21-.84,.31-1.5,.54-1.95,.68-.45,.14-.69,.21-.69,.19,0-.02,.22-.12,.66-.29,.48-.2,1.12-.45,1.91-.77,1.64-.69,4.03-1.71,6.77-3.34,2.72-1.62,5.85-3.9,8.38-7.25,2.54-3.3,4.2-7.9,3.87-12.71-.18-2.39-.87-4.7-2.11-6.59-1.21-1.91-2.9-3.38-4.72-4.39-3.67-2.04-7.57-2.46-10.73-2.42-3.18,.05-5.75,.47-7.51,.72-.84,.13-1.52,.23-2.04,.3-.47,.07-.71,.09-.72,.07Z" style="fill:#263238;"></path><path d="M186.16,74.74s-.07-.04-.19-.13l-.52-.42c-.42-.41-1.06-1.02-1.66-1.97-.61-.94-1.22-2.21-1.56-3.77-.33-1.56-.42-3.43,.08-5.41,.5-1.96,1.64-3.98,3.43-5.57,1.77-1.59,4.13-2.79,6.79-3.2,2.66-.44,5.57,.13,8.15,1.46,2.58,1.35,4.87,3.44,6.62,5.97,1.75,2.54,2.89,5.35,3.7,8.12,.8,2.78,1.28,5.52,1.63,8.14,.69,5.24,.34,10.14-1.05,13.93-1.37,3.8-3.56,6.37-5.28,7.78-1.74,1.43-2.94,1.84-2.94,1.84-.04-.06,1.13-.53,2.81-1.99,1.66-1.44,3.77-4,5.07-7.75,1.32-3.74,1.64-8.55,.92-13.75-.35-2.6-.85-5.32-1.64-8.06-.8-2.73-1.93-5.49-3.64-7.97-1.7-2.47-3.93-4.5-6.42-5.81-2.5-1.3-5.28-1.85-7.84-1.44-2.56,.38-4.85,1.52-6.57,3.05-1.74,1.52-2.85,3.45-3.36,5.34-.51,1.9-.45,3.72-.15,5.25,.31,1.54,.88,2.78,1.45,3.72,1.16,1.89,2.27,2.57,2.2,2.63Z" style="fill:#263238;"></path><path d="M157.85,108.57s-.22,.06-.64,.13c-.42,.07-1.05,.17-1.86,.25-1.62,.16-3.99,.28-6.91,.03-2.91-.25-6.36-.91-10-2.23-1.82-.66-3.67-1.5-5.51-2.53-1.84-1.02-3.69-2.26-5.19-3.97-.74-.86-1.36-1.82-1.77-2.85-.4-1.04-.61-2.14-.58-3.22,.04-2.17,.88-4.16,2-5.76,1.15-1.6,2.61-2.82,4.17-3.62,1.56-.78,3.14-1.2,4.6-1.38,2.93-.37,5.31,.06,6.89,.41,.8,.19,1.4,.37,1.81,.51,.41,.14,.62,.22,.61,.24,0,.02-.23-.03-.64-.14-.41-.1-1.03-.25-1.82-.41-1.58-.29-3.94-.65-6.8-.25-1.42,.2-2.95,.64-4.45,1.4-1.48,.78-2.88,1.97-3.97,3.51-1.06,1.54-1.85,3.45-1.88,5.49-.02,1.02,.18,2.04,.56,3.02,.39,.97,.98,1.88,1.69,2.7,1.44,1.64,3.24,2.85,5.05,3.86,1.81,1.02,3.64,1.86,5.43,2.52,3.59,1.33,6.99,2.01,9.87,2.31,2.88,.29,5.24,.24,6.85,.14,1.62-.1,2.51-.23,2.52-.18Z" style="fill:#263238;"></path><path d="M140.33,94.05s-.14-.15-.36-.48c-.22-.32-.54-.8-.94-1.42-.8-1.25-1.94-3.06-3.18-5.42-1.21-2.35-2.53-5.28-3.18-8.76-.32-1.74-.44-3.61-.25-5.54,.2-1.91,.74-3.93,1.98-5.62,1.25-1.69,3.12-2.78,5.02-3.19,1.91-.44,3.81-.36,5.55-.08,1.75,.3,3.36,.83,4.8,1.43,1.45,.59,2.76,1.21,3.96,1.75,2.4,1.1,4.4,1.86,5.83,2.21,1.43,.37,2.24,.44,2.24,.49,0,.02-.21,0-.6-.02-.39-.03-.96-.11-1.69-.27-1.46-.29-3.5-1.01-5.93-2.07-2.44-1.01-5.27-2.49-8.69-3.05-1.7-.26-3.54-.33-5.36,.1-1.81,.4-3.55,1.43-4.72,3-1.16,1.59-1.69,3.52-1.89,5.37-.19,1.87-.08,3.69,.22,5.4,.61,3.42,1.88,6.32,3.04,8.68,1.18,2.36,2.28,4.2,3.02,5.48,.35,.6,.63,1.09,.86,1.47,.19,.34,.29,.52,.27,.53Z" style="fill:#263238;"></path><path d="M209.74,84.46c5.21-.79,10.21-2.98,14.33-6.26,0,2.67-1.06,5.33-2.9,7.27s-4.45,3.12-7.12,3.24" style="fill:#263238;"></path></g><path d="M278.68,195.67c.35-3.38,3.14-6.31,2.86-9.7-.22-2.65-2.25-4.73-3.53-7.07-4.87-8.9,1.38-20.98-3.74-29.73l1.31,34.68c.74,2.89,.23,5.93-.04,8.9-.27,2.97-.25,6.17,1.39,8.66,1.63,2.49,5.41,3.77,7.7,1.86-3.52-.5-6.31-4.06-5.94-7.6Z" style="fill:#263238;"></path><path d="M189.15,217.52c-.35-3.38-3.14-6.31-2.86-9.7,.22-2.65,2.25-4.73,3.53-7.07,4.87-8.89-1.38-20.98,3.74-29.73l-1.31,34.68c-.74,2.89-.23,5.93,.04,8.9,.27,2.97,.25,6.17-1.39,8.66-1.63,2.49-5.41,3.77-7.7,1.86,3.52-.5,6.31-4.06,5.94-7.6Z" style="fill:#263238;"></path><g><path d="M164.82,130.57c11.57-17.6,25.48-28.23,46.03-30.42,11.6-1.23,20.48-1.36,28.78,1.38,8.04,2.65,15.72,6.18,21.36,13.04,6.7,8.15,12.55,17.42,14.61,27.87,2.12,10.73,2.26,21.41,1.04,30.32-1.48,10.83-7.1,27.68-12.52,37.06l-17.63,3.82c-14.77,1.84-29.74,3.68-44.48,1.48-14.74-2.2-29.48-8.96-38.37-21.31-12.35-17.16-10.4-45.64,1.18-63.24Z" style="fill:#263238;"></path><g><path d="M190.87,130.94l34.45-17.38,9.43,.25c21-1.8,37.54,20.06,39.19,37.05,1.84,18.87,3.33,41.99,1.57,56.18-3.54,28.53-27.22,32.99-27.22,32.99,0,0,1.55,21.58,2.56,30.97l-53-5.6-15.56-124.04c-.28-5.18,3.45-9.71,8.58-10.43Z" style="fill:#ffbf9d;"></path><path d="M232.93,204.24c.06-1.49,.77-2.87,1.73-3.86,1.93-1.98,4.97-2.43,7.35-1.08,2.38,1.35,3.94,4.4,3.78,7.38h0c-1.1,1.84-2.92,3.18-5.03,3.55-.33,.06-.66,.1-.99,.12-1.62,.1-3.31-.3-4.65-1.38-1.34-1.08-2.27-2.9-2.19-4.74Z" style="fill:#ff9a6c;"></path><g><path d="M263.19,174.61c.13,1.92-1.38,3.62-3.38,3.79-2,.18-3.73-1.23-3.86-3.15-.13-1.92,1.38-3.62,3.38-3.79,2-.18,3.73,1.24,3.87,3.15Z" style="fill:#263238;"></path><path d="M268.37,160.88c-.43,.49-3.26-1.46-7.18-1.31-3.91,.09-6.72,2.2-7.16,1.73-.22-.2,.22-1.08,1.43-2.03,1.2-.95,3.27-1.9,5.71-1.98,2.44-.07,4.52,.76,5.73,1.64,1.24,.88,1.67,1.73,1.46,1.95Z" style="fill:#263238;"></path><path d="M246.05,193.68c-.03-.22,2.39-.73,6.32-1.36,1-.14,1.94-.37,2.08-1.06,.21-.73-.24-1.79-.77-2.94-1.02-2.39-2.09-4.89-3.22-7.52-4.48-10.7-7.75-19.52-7.32-19.69,.43-.18,4.41,8.35,8.89,19.06,1.08,2.64,2.11,5.16,3.09,7.56,.42,1.12,1.11,2.39,.65,3.91-.24,.76-.96,1.32-1.59,1.52-.63,.22-1.2,.25-1.69,.29-3.96,.35-6.42,.45-6.45,.23Z" style="fill:#263238;"></path><path d="M248.32,240s-19.05,1.88-38.35-8.84c0,0,10.54,19.78,38.85,16.15l-.5-7.31Z" style="fill:#ff9a6c;"></path><path d="M234.62,196.78c.63-.06,.79,4.19,4.53,7.09,3.73,2.9,8.25,2.27,8.3,2.86,.07,.26-.98,.86-2.89,.98-1.87,.13-4.63-.38-6.92-2.15-2.28-1.77-3.32-4.21-3.53-5.95-.22-1.77,.22-2.84,.51-2.83Z" style="fill:#263238;"></path><path d="M265.83,144.89c-.63,.98-3.65,.44-7.14,.85-3.51,.3-6.37,1.43-7.17,.6-.36-.41,0-1.35,1.18-2.36,1.16-1,3.2-1.96,5.61-2.2,2.41-.24,4.59,.29,5.92,1.03,1.35,.75,1.87,1.6,1.6,2.08Z" style="fill:#263238;"></path><path d="M220.45,176.74c.07,1.92,1.75,3.45,3.76,3.41,2.01-.04,3.58-1.62,3.51-3.54-.07-1.92-1.76-3.45-3.76-3.42-2.01,.03-3.58,1.62-3.51,3.54Z" style="fill:#263238;"></path><path d="M215.5,164.07c.48,.44,3.09-1.79,7-2.06,3.9-.33,6.91,1.48,7.3,.97,.19-.23-.33-1.05-1.64-1.87-1.29-.82-3.46-1.55-5.89-1.36-2.43,.19-4.42,1.23-5.53,2.23-1.14,1.01-1.48,1.89-1.24,2.09Z" style="fill:#263238;"></path><path d="M212.92,153.84c.83,.83,3.78-.3,7.41-.61,3.61-.42,6.74,.12,7.38-.86,.28-.47-.27-1.33-1.67-2.07-1.38-.74-3.64-1.27-6.13-1.02-2.49,.25-4.59,1.21-5.78,2.21-1.22,1-1.57,1.95-1.2,2.36Z" style="fill:#263238;"></path></g><g><path d="M191.36,188.39c-.08-2.11-2.69-7.01-4.79-7.27-5.6-.68-15.63,.11-15.24,14.27,.53,19.35,19.85,14.83,19.87,14.27,.01-.43,.43-13.98,.16-21.27Z" style="fill:#ffbf9d;"></path><path d="M185.67,202.74c-.09-.06-.33,.25-.89,.52-.55,.27-1.5,.47-2.52,.12-2.07-.69-3.88-3.89-4.06-7.38-.1-1.76,.22-3.45,.81-4.85,.55-1.43,1.44-2.45,2.47-2.66,1.02-.27,1.76,.33,2.02,.87,.27,.53,.16,.93,.26,.95,.06,.05,.41-.33,.23-1.13-.09-.38-.33-.83-.8-1.19-.47-.36-1.16-.54-1.88-.44-1.49,.15-2.79,1.55-3.44,3.1-.73,1.55-1.13,3.45-1.02,5.43,.23,3.9,2.33,7.49,5.15,8.22,1.37,.32,2.5-.12,3.07-.6,.59-.49,.68-.93,.61-.96Z" style="fill:#ff9a6c;"></path></g></g><path d="M184.95,182.89l8.88,13.08c16.33-45.42-6.36-53.31,9.48-61.48,25.62-13.21,36.28-25.92,41.02-20.13,0,0-15-4.66-30.46-.59-15.46,4.07-44.55,14.59-42.44,33.07,2.11,18.48,13.52,36.05,13.52,36.05Z" style="fill:#263238;"></path></g><path d="M239.51,102.85c-22.27-3.39-48.56,30.23-48.56,30.23l.5,19.27c21.47,1.49,49.22-21.25,65.27-37.07,0,0,5.06-9.04-17.21-12.43Z" style="fill:#263238;"></path><path d="M155.32,161.11s-.02-.09-.02-.26c0-.2-.01-.45-.02-.75-.03-.66,.01-1.64,.1-2.89,.19-2.51,.73-6.12,1.86-10.48,.58-2.17,1.25-4.54,2.2-7.03,1.01-2.46,2.26-5,3.74-7.58,2.97-5.16,6.96-10.44,11.96-15.16,4.99-4.74,10.5-8.42,15.84-11.05,2.67-1.32,5.29-2.4,7.79-3.27,2.51-.86,4.89-1.5,7.08-2.01,4.4-.97,8.03-1.33,10.54-1.46,1.25-.08,2.23-.08,2.89-.08h.75c.17,.01,.26,.02,.26,.03,0,0-.09,.02-.26,.03-.2,.01-.45,.03-.75,.04-.66,.03-1.63,.07-2.88,.18-2.5,.2-6.11,.61-10.47,1.62-2.17,.53-4.54,1.2-7.02,2.06-2.48,.88-5.08,1.97-7.72,3.29-5.29,2.64-10.74,6.3-15.69,11-4.96,4.69-8.94,9.91-11.9,15.02-1.48,2.56-2.74,5.08-3.75,7.5-.95,2.44-1.64,4.81-2.24,6.96-1.18,4.32-1.76,7.91-2.02,10.4-.11,1.25-.19,2.22-.19,2.88-.01,.3-.02,.55-.03,.75-.01,.17-.02,.26-.03,.26Z" style="fill:#455a64;"></path><path d="M174.35,117.59s.05-.06,.17-.15c.15-.11,.32-.25,.54-.41,.52-.38,1.22-.89,2.11-1.54,1.86-1.3,4.65-3.06,8.27-4.91,3.65-1.78,8.13-3.67,13.32-5.12,5.18-1.44,11.06-2.42,17.27-2.65,12.46-.49,23.62,2.44,30.99,5.85,1.82,.94,3.31,2.1,4.35,3.37,1.04,1.27,1.62,2.59,1.89,3.7,.28,1.12,.24,2.03,.17,2.62-.08,.6-.21,.89-.21,.89-.09,0,.42-1.27-.16-3.46-.29-1.08-.88-2.35-1.92-3.57-1.03-1.21-2.5-2.32-4.3-3.23-7.32-3.29-18.43-6.15-30.8-5.66-6.17,.23-12,1.19-17.16,2.59-5.16,1.41-9.63,3.25-13.28,4.99-3.62,1.8-6.43,3.5-8.32,4.75-.91,.61-1.63,1.1-2.16,1.46-.23,.15-.42,.27-.57,.37-.13,.08-.2,.12-.21,.11Z" style="fill:#455a64;"></path><path d="M173.21,119.69s.21-.16,.63-.41c.47-.28,1.08-.64,1.85-1.1,1.62-.92,4.05-2.13,7.15-3.39,3.13-1.18,6.94-2.38,11.3-3.16,4.35-.79,9.24-1.16,14.34-.85,5.1,.3,9.91,1.24,14.14,2.55,4.21,1.32,7.96,2.83,10.68,4.84,1.36,.99,2.46,2.06,3.27,3.13,.81,1.07,1.31,2.13,1.61,3.02,.27,.9,.36,1.63,.38,2.13,0,.49,0,.75-.02,.75-.08,0,.03-1.06-.55-2.81-.32-.86-.83-1.88-1.64-2.91-.81-1.03-1.91-2.06-3.26-3.01-2.69-1.93-6.42-3.39-10.61-4.68-4.2-1.27-8.97-2.19-14.03-2.49-5.06-.3-9.9,.05-14.22,.81-4.33,.75-8.13,1.9-11.25,3.03-3.1,1.21-5.53,2.36-7.18,3.22-.79,.42-1.41,.76-1.89,1.01-.44,.23-.67,.34-.68,.32Z" style="fill:#455a64;"></path><path d="M156.68,147.13s.56,.3,1.51,.92c.47,.31,1.05,.69,1.75,1.1,.69,.41,1.46,.91,2.36,1.38,1.76,1,3.92,2.08,6.37,3.16,2.46,1.05,5.22,2.07,8.19,2.93,2.97,.84,5.86,1.44,8.5,1.86,2.65,.39,5.05,.62,7.07,.7,1.01,.07,1.93,.06,2.73,.08,.81,.03,1.5,.01,2.07,0,1.13-.02,1.76-.01,1.77,.02,0,.04-.62,.1-1.76,.18-.57,.05-1.26,.09-2.07,.09-.81,0-1.73,.05-2.75,0-2.04-.04-4.46-.23-7.13-.59-2.67-.4-5.58-.98-8.57-1.83-2.99-.87-5.77-1.92-8.24-3-2.46-1.11-4.61-2.23-6.36-3.28-.89-.5-1.65-1.02-2.33-1.45-.68-.43-1.25-.84-1.71-1.18-.92-.67-1.42-1.06-1.4-1.09Z" style="fill:#455a64;"></path><path d="M192.22,199.15c-.35-3.38-3.14-6.31-2.86-9.7,.22-2.65,2.25-4.73,3.53-7.07,4.87-8.89-1.38-20.98,3.74-29.73l-1.31,34.68c-.74,2.89-.23,5.93,.04,8.9,.27,2.97,.25,6.17-1.39,8.66-1.63,2.49-5.41,3.77-7.7,1.86,3.52-.5,6.31-4.06,5.94-7.6Z" style="fill:#263238;"></path><path d="M202.15,149.4s-.55,.03-1.53,0c-.49-.01-1.1-.05-1.8-.13-.7-.08-1.5-.14-2.37-.3-1.75-.25-3.81-.7-6.07-1.34-2.24-.67-4.67-1.55-7.12-2.7-2.44-1.16-4.67-2.47-6.61-3.77-1.93-1.33-3.59-2.63-4.9-3.82-.68-.57-1.23-1.15-1.74-1.64-.51-.48-.92-.93-1.24-1.3-.66-.74-1.01-1.15-.98-1.18,.03-.02,.43,.35,1.13,1.04,.35,.35,.78,.77,1.3,1.23,.52,.47,1.09,1.02,1.78,1.57,1.33,1.15,3,2.41,4.92,3.7,1.94,1.27,4.15,2.55,6.57,3.7,2.43,1.13,4.82,2.02,7.03,2.71,2.22,.66,4.26,1.14,5.99,1.44,.86,.18,1.65,.27,2.34,.37,.69,.11,1.29,.17,1.78,.22,.98,.1,1.52,.18,1.52,.21Z" style="fill:#455a64;"></path></g><g><g><path d="M320.86,428.15s-4.77-46.35-1.35-73.14c3.42-26.79-35.82-97.01-35.82-97.01l-33.66-4.18h0c-.91,26.49-53.76-1.89-53.76-1.89l-18.76,7.22-22.78,10.78,27.48,170.08s-12.78,18.11-15.1,24.69h119.78l37.61-.14-3.63-36.4Z" style="fill:#FF725E;"></path><g><g style="opacity:.3;"><path d="M179.33,411.38s8,18.73,19.26,23.08c50.67,19.6,115.87-19.15,115.87-19.15l-12.95-16.59-93.88,29.86-28.3-17.21Z"></path></g><path d="M156.08,272.43s-18.24-.51-18.58,39.51c-.34,40.02,45.84,107.17,53.71,113.78,7.87,6.61,16.86,11.06,40.57,7.48,29.74-4.48,69.73-20.13,69.73-20.13l-23.41-24.93-58.6-4.11-37.53-88.44s-11.18-24.89-25.89-23.15Z" style="fill:#ffbf9d;"></path></g><path d="M342.1,415.29c8.93,.41,17.59-3.65,22.62-11.04,2.66-3.9,4.72-8.58,4.72-13.67,0-14.27-9.58-34.45-11.63-42.1-2.05-7.66-35.1-66.64-53.81-78.09-4.2-2.57-12.37-4.46-12.37-4.46l32.65,105.52-72.14,12.04,7.92,28.04,82.04,3.77Z" style="fill:#ffbf9d;"></path><path d="M313.38,356.91l50.46-15.93s-51.63-83.26-81.62-83.15l31.16,99.09Z" style="fill:#FF725E;"></path><g><path d="M301.51,375.25l11.1-21.71,.86-11.24c.2-2.68,1.62-5.12,3.85-6.63l12.73-8.61s4.36,.52,3.01,3.95c-1.35,3.44-7.94,9.62-7.94,9.62l-3.89,11.03,6.32-11.2,9.23-4.64,9.12,.69s1.69,4.12-2.53,4.3h-4.56l-6.93,5.67-4.33,10.65,6.52-10.31,9.63-3.48,6.08,1.59s1.69,2.75-1.35,3.09c-3.04,.34-5.07,.34-5.07,.34l-5.58,3.3-4.9,10.45,8.62-7.22,11.15-1.35s1.86,2.73-1.01,3.76c-2.87,1.03-8.62,4.12-8.62,4.12l-6.25,7.73-35.26,6.09Z" style="fill:#ffbf9d;"></path><path d="M301.51,375.25c1.27-.23,13.32-2.37,35.23-6.26l-.1,.06c1.97-2.44,4.05-5.03,6.24-7.74l.02-.03,.03-.02c1.96-1.04,4-2.1,6.15-3.1,.54-.25,1.09-.49,1.65-.72,.56-.25,1.16-.39,1.6-.73,.47-.32,.71-.85,.7-1.41-.02-.56-.25-1.15-.55-1.64l.2,.09c-3.49,.43-7.26,.89-11.15,1.37l.12-.05c-2.69,2.26-5.61,4.71-8.61,7.23l-.81,.68,.45-.96c1.53-3.28,3.19-6.83,4.89-10.46l.03-.07,.06-.04c1.73-1.03,3.64-2.16,5.57-3.3l.06-.03h.07c1.45-.02,2.98-.13,4.53-.29,.39-.04,.77-.08,1.12-.18,.36-.09,.65-.29,.82-.56,.35-.55,.09-1.4-.26-2.03l.15,.11c-1.9-.5-3.98-1.04-6.08-1.59h.15c-3.04,1.09-6.31,2.28-9.63,3.48l.13-.1c-2.07,3.27-4.28,6.77-6.52,10.31l-.46-.24c.84-2.06,1.74-4.28,2.64-6.51,.56-1.39,1.13-2.77,1.68-4.15l.02-.06,.05-.04c2.33-1.91,4.64-3.8,6.93-5.67l.07-.06h.09c.9,0,1.8,0,2.69,0,.88-.02,1.82,.06,2.62-.09,.81-.16,1.55-.63,1.75-1.42,.22-.76,.08-1.66-.2-2.42l.22,.16c-3.08-.23-6.12-.46-9.12-.69l.13-.03c-3.12,1.57-6.2,3.11-9.23,4.64l.1-.1c-2.16,3.82-4.27,7.55-6.32,11.2l-.44-.2c1.34-3.78,2.63-7.45,3.9-11.03l.02-.05,.04-.04c2.32-2.23,4.52-4.51,6.35-6.96,.85-1.22,1.84-2.53,1.78-3.92-.03-.69-.5-1.26-1.08-1.63-.59-.37-1.29-.59-1.97-.69l.14-.03c-2.81,1.9-5.53,3.73-8.14,5.49-1.31,.88-2.59,1.74-3.84,2.59-1.29,.8-2.4,1.74-3.16,2.95-.77,1.19-1.23,2.53-1.36,3.88-.11,1.37-.22,2.71-.32,4.01-.21,2.61-.4,5.08-.58,7.4v.03l-.02,.03c-7.02,13.53-10.74,20.71-11.23,21.64,.47-.94,4.11-8.16,10.97-21.77l-.02,.05c.17-2.32,.35-4.79,.55-7.4,.1-1.31,.2-2.65,.3-4.02,.13-1.4,.6-2.8,1.4-4.04,.78-1.25,1.98-2.27,3.25-3.07,1.25-.85,2.53-1.72,3.83-2.6,2.61-1.77,5.32-3.61,8.12-5.51l.07-.05h.07c.75,.13,1.48,.35,2.15,.76,.66,.4,1.24,1.1,1.28,1.94,.07,.82-.25,1.59-.59,2.27-.38,.68-.79,1.33-1.26,1.95-1.85,2.49-4.05,4.77-6.39,7.03l.06-.09c-1.26,3.57-2.55,7.24-3.88,11.03l-.44-.2c2.05-3.65,4.16-7.38,6.31-11.2l.04-.07,.07-.03c3.03-1.52,6.1-3.07,9.22-4.64l.06-.03h.07c3,.23,6.04,.46,9.12,.69h.17l.05,.16c.32,.87,.48,1.81,.22,2.76-.24,.99-1.23,1.63-2.14,1.78-.95,.17-1.82,.08-2.72,.1-.9,0-1.8,0-2.7,0l.16-.06c-2.29,1.87-4.6,3.76-6.93,5.67l.08-.1c-.56,1.38-1.12,2.76-1.68,4.15-.91,2.23-1.81,4.45-2.64,6.51l-.46-.24c2.24-3.54,4.45-7.04,6.53-10.31l.05-.07,.08-.03c3.32-1.2,6.59-2.38,9.63-3.48l.07-.03,.08,.02c2.1,.55,4.18,1.09,6.08,1.59l.1,.03,.05,.09c.22,.39,.37,.78,.46,1.21,.08,.43,.06,.93-.2,1.34-.56,.85-1.58,.89-2.31,.97-1.57,.16-3.1,.27-4.58,.29l.13-.03c-1.93,1.14-3.84,2.27-5.58,3.29l.1-.11c-1.7,3.63-3.37,7.17-4.91,10.45l-.36-.28c3-2.51,5.93-4.95,8.62-7.21l.05-.04h.07c3.89-.48,7.66-.93,11.15-1.35l.13-.02,.07,.11c.35,.57,.59,1.18,.62,1.86,.03,.67-.31,1.39-.87,1.75-.55,.4-1.16,.53-1.69,.77-.55,.22-1.1,.47-1.63,.71-2.15,.99-4.19,2.04-6.14,3.07l.06-.05c-2.2,2.71-4.29,5.29-6.27,7.72l-.04,.05h-.06c-21.95,3.69-34.02,5.72-35.29,5.93Z" style="fill:#ff9a6c;"></path></g><g><g><path d="M260.06,411.16s-13.15,8.41-27.99,7.98c-14.84-.43-27.99,4.45-29.9,3.09-1.91-1.36-2.12-3.73,0-4.81,2.12-1.08,11.11-2.37,11.11-2.37l7.76-3.23s-26.5,2.37-28.62,1.29c-2.12-1.08-4.24-2.59-3.39-4.96,.85-2.37,2.97-2.37,2.97-2.37,0,0-5.72,.22-5.51-2.16,.21-2.37,2.33-4.53,3.18-4.96,.85-.43,11.97-5.03,11.97-5.03l14.3-2.89-13.73-.56-12,3.4s-4.79,.55-3.72-3.55c1.07-4.1,15.7-8.63,15.7-8.63l18.66-1.31s-14.42-2.14-15.9-6.67c-1.48-4.53,1.06-7.12,1.06-7.12,0,0,10.18,4.1,15.05,4.96,4.88,.86,10.81,2.8,18.66,6.04,7.85,3.24,12.44,5.82,12.44,5.82" style="fill:#ffbf9d;"></path><path d="M252.15,383.12s-.26-.13-.78-.39c-.53-.26-1.29-.64-2.28-1.14-2.01-.98-5-2.38-8.94-4-3.94-1.59-8.77-3.56-14.59-5.16-1.46-.39-2.98-.75-4.56-1.03-1.6-.3-3.21-.76-4.85-1.27-3.28-1.03-6.69-2.27-10.23-3.67l.21-.04c-1.18,1.38-1.67,3.41-1.38,5.34,.17,.97,.37,1.98,1.05,2.69,.67,.73,1.54,1.3,2.46,1.78,1.86,.96,3.91,1.64,6.03,2.22,2.12,.57,4.32,1.05,6.57,1.4l1.92,.3-1.94,.14c-5.93,.42-12.18,.86-18.66,1.32h.05c-3.73,1.21-7.52,2.62-11.11,4.55-.89,.49-1.77,1.03-2.57,1.65-.78,.62-1.58,1.35-1.84,2.26-.25,.95-.2,2.05,.59,2.62,.77,.56,1.87,.68,2.86,.6h-.04c3.79-1.07,7.86-2.22,11.99-3.4h.08c4.36,.17,9.02,.36,13.73,.55l2.15,.09-2.11,.43c-3.24,.66-6.71,1.36-10.2,2.06-1.37,.28-2.74,.55-4.1,.83h.05c-4.02,1.67-7.99,3.34-11.91,4.99-.84,.48-1.55,1.33-2.1,2.17-.54,.84-.98,1.86-.96,2.79,.02,.42,.36,.76,.78,.98,.42,.23,.91,.37,1.41,.47,.99,.2,2.03,.25,3.04,.24v.51c-.76,.04-1.56,.44-2.06,1.05-.51,.61-.85,1.43-.83,2.2,.02,.78,.47,1.5,1.07,2.05,.6,.56,1.32,1,2.05,1.39,.19,.11,.37,.19,.52,.23,.19,.03,.39,.08,.59,.09,.41,.05,.83,.06,1.24,.08,.83,.03,1.67,.02,2.5,0,1.67-.03,3.32-.1,4.96-.18,6.56-.34,12.9-.84,18.98-1.36l1.49-.13-1.38,.57c-2.64,1.1-5.23,2.18-7.76,3.23h-.03l-.03,.02c-2.85,.43-5.64,.89-8.32,1.5-.67,.16-1.33,.32-1.97,.54-.64,.2-1.22,.49-1.64,.96-.41,.47-.59,1.09-.49,1.7,.1,.6,.41,1.18,.85,1.62,.21,.2,.48,.46,.7,.55,.26,.09,.58,.12,.89,.12,.63,0,1.27-.08,1.9-.16,1.26-.18,2.5-.41,3.73-.64,2.45-.46,4.83-.92,7.15-1.28,4.64-.74,9.03-1.17,13.1-1.21,1.02-.01,2.01,0,2.99,.03,.97-.01,1.92,0,2.84-.03,.92-.07,1.83-.12,2.71-.21,.88-.12,1.73-.22,2.56-.35,6.64-1.13,11.56-3.22,14.84-4.7,1.63-.76,2.85-1.41,3.67-1.86,.4-.22,.7-.39,.92-.52,.21-.12,.31-.17,.31-.17,0,0-.39,.28-1.2,.75-.81,.47-2.02,1.13-3.65,1.92-3.26,1.52-8.18,3.65-14.85,4.83-.83,.14-1.69,.24-2.57,.37-.88,.1-1.8,.15-2.73,.22-.93,.04-1.89,.03-2.87,.04-.97-.01-1.96-.03-2.98-.01-4.05,.07-8.42,.5-13.05,1.26-2.31,.37-4.69,.83-7.14,1.3-1.23,.23-2.47,.47-3.74,.66-.64,.09-1.28,.17-1.96,.17-.34,0-.68-.02-1.04-.15-.19-.08-.34-.19-.46-.3-.14-.1-.26-.23-.38-.35-.49-.49-.85-1.13-.97-1.84-.12-.72,.11-1.49,.59-2.04,.48-.55,1.16-.88,1.82-1.09,.66-.23,1.33-.39,2-.56,2.71-.62,5.5-1.09,8.36-1.53h-.05c2.53-1.04,5.12-2.12,7.76-3.23l.11,.45c-6.08,.53-12.42,1.04-18.99,1.39-1.64,.08-3.3,.16-4.98,.19-.84,.02-1.68,.02-2.53,0-.42-.01-.85-.03-1.28-.08-.21-.02-.44-.06-.66-.1-.26-.07-.46-.18-.64-.28-.76-.41-1.51-.86-2.16-1.47-.65-.59-1.21-1.43-1.23-2.4-.02-.95,.36-1.83,.95-2.55,.61-.71,1.48-1.18,2.46-1.23v.51c-1.05,.02-2.1-.03-3.15-.25-.52-.11-1.05-.25-1.55-.52-.48-.25-1-.73-1.05-1.39-.01-1.19,.46-2.19,1.04-3.12,.61-.9,1.29-1.76,2.3-2.35,3.93-1.65,7.92-3.33,11.95-5.02h.05c1.36-.29,2.73-.57,4.1-.84,3.49-.71,6.96-1.41,10.2-2.06l.04,.51c-4.72-.19-9.37-.38-13.73-.56h.08c-4.13,1.16-8.21,2.31-12,3.39h-.04c-1.1,.08-2.26,0-3.23-.7-.48-.34-.79-.92-.87-1.48-.11-.57,0-1.13,.11-1.66,.35-1.13,1.21-1.87,2.02-2.53,.84-.64,1.73-1.19,2.64-1.69,3.65-1.96,7.45-3.36,11.21-4.59h.05c6.48-.46,12.73-.89,18.66-1.3l-.02,.44c-2.28-.37-4.48-.85-6.62-1.43-2.13-.59-4.21-1.28-6.11-2.27-.95-.5-1.85-1.09-2.58-1.88-.36-.4-.64-.89-.79-1.4-.16-.5-.27-1-.35-1.51-.29-2.03,.2-4.15,1.5-5.66l.08-.09,.13,.05c3.53,1.4,6.93,2.66,10.19,3.7,1.63,.51,3.23,.98,4.8,1.28,1.59,.29,3.12,.65,4.58,1.05,5.84,1.64,10.67,3.63,14.59,5.25,3.92,1.65,6.91,3.08,8.9,4.09,1,.51,1.75,.91,2.26,1.19,.5,.28,.75,.44,.75,.44Z" style="fill:#ff9a6c;"></path></g><path d="M220.37,401.52c0,.12-1.71,.18-4.45,.35-2.74,.17-6.53,.49-10.67,1.13-4.14,.64-7.85,1.47-10.52,2.14-2.67,.66-4.32,1.13-4.35,1.01-.03-.1,1.56-.75,4.21-1.56,2.65-.81,6.37-1.74,10.55-2.39,4.18-.64,8.01-.88,10.77-.9,2.77-.02,4.47,.13,4.47,.23Z" style="fill:#ff9a6c;"></path></g><path d="M154.17,378.62l54.69-19.55s-11.15-52.92-27.92-72.38c-15.61-18.12-22.07-19.3-28.05-15.82-5.6,3.26-25.87,16.13-13.87,59.83s15.15,47.93,15.15,47.93Z" style="fill:#FF725E;"></path><path d="M254.68,429.38s-.32,.14-.94,.32c-.71,.19-1.62,.45-2.75,.76-2.39,.63-5.88,1.46-10.23,2.27-4.35,.78-9.58,1.58-15.43,1.9-5.84,.28-12.35,.21-19-1.29-3.33-.69-6.48-1.87-9.35-3.32-1.46-.7-2.76-1.61-4.05-2.49-1.24-.98-2.33-2.05-3.34-3.14-3.99-4.4-7.03-8.78-9.61-12.43-2.55-3.68-4.51-6.72-5.84-8.84-.62-1.01-1.11-1.82-1.5-2.46-.33-.57-.49-.88-.47-.89,.02-.01,.23,.26,.61,.8,.42,.61,.96,1.4,1.63,2.37,1.41,2.06,3.44,5.05,6.04,8.68,2.63,3.59,5.72,7.94,9.68,12.25,1,1.07,2.07,2.1,3.25,3.03,1.26,.84,2.53,1.72,3.96,2.4,2.81,1.41,5.89,2.56,9.17,3.24,6.53,1.48,12.99,1.57,18.79,1.34,5.81-.27,11.02-1.01,15.37-1.71,4.35-.74,7.84-1.48,10.26-2.02,1.14-.25,2.06-.45,2.78-.61,.64-.13,.98-.19,.98-.16Z" style="fill:#263238;"></path><path d="M213.55,369.11c-.12,.05-3.59-8.51-7.74-19.12-4.15-10.61-18.96-36.16-18.84-36.21,.12-.05,15.13,25.42,19.28,36.03,4.15,10.61,7.41,19.25,7.29,19.3Z" style="fill:#263238;"></path></g><path d="M293.64,287.65s.14,.15,.36,.45c.25,.35,.57,.8,.96,1.35,.84,1.17,1.99,2.9,3.39,5.06,2.75,4.34,6.44,10.46,9.35,17.77,2.92,7.31,4.4,14.32,5.23,19.39,.4,2.54,.68,4.6,.83,6.03,.07,.67,.12,1.21,.17,1.65,.03,.38,.04,.58,.02,.58-.02,0-.06-.19-.13-.57l-.26-1.63c-.21-1.42-.54-3.47-.99-6-.92-5.04-2.45-11.99-5.36-19.26-2.89-7.27-6.52-13.39-9.18-17.77-1.36-2.18-2.46-3.94-3.25-5.14-.36-.57-.65-1.03-.88-1.4-.2-.32-.29-.5-.28-.51Z" style="fill:#263238;"></path><g><line x1="260.06" y1="411.38" x2="334.37" y2="415.16" style="fill:#ffbf9d;"></line><path d="M334.37,415.16c0,.14-16.65-.59-37.17-1.63-20.52-1.04-37.15-2.01-37.14-2.15,0-.14,16.65,.59,37.17,1.63,20.52,1.04,37.15,2.01,37.14,2.15Z" style="fill:#ff9a6c;"></path></g><path d="M343.35,368.25s-.08,.03-.23,.06c-.19,.04-.41,.08-.69,.13-.65,.11-1.54,.27-2.65,.46-2.35,.4-5.68,.96-9.77,1.66-8.28,1.43-19.65,3.39-32.21,5.56-12.58,2.17-23.98,4.1-32.25,5.41-4.13,.66-7.48,1.16-9.8,1.5-1.13,.15-2.02,.28-2.67,.36l-.7,.08c-.16,.02-.24,.02-.24,.01,0,0,.08-.03,.23-.06,.19-.04,.41-.08,.69-.13,.65-.11,1.54-.27,2.65-.46,2.35-.4,5.68-.96,9.77-1.66,8.28-1.43,19.65-3.39,32.22-5.56,12.58-2.17,23.98-4.1,32.24-5.41,4.13-.66,7.48-1.16,9.8-1.5,1.13-.15,2.02-.28,2.67-.36,.28-.03,.51-.06,.7-.08,.16-.02,.24-.02,.24-.01Z" style="fill:#ff9a6c;"></path></g></g></g></svg>
